<?xml version="1.0" standalone="no"?>
<!DOCTYPE svg PUBLIC "-//W3C//DTD SVG 20010904//EN"
 "http://www.w3.org/TR/2001/REC-SVG-20010904/DTD/svg10.dtd">
<svg version="1.0" xmlns="http://www.w3.org/2000/svg"
 width="675.000000pt" height="675.000000pt" viewBox="0 0 675.000000 675.000000"
 preserveAspectRatio="xMidYMid meet">
<metadata>
Created by potrace 1.11, written by Peter Selinger 2001-2013
</metadata>
<g transform="translate(0.000000,675.000000) scale(0.100000,-0.100000)"
fill="#000000" stroke="none">
<path d="M3155 6574 c-639 -53 -1175 -235 -1680 -574 -167 -112 -302 -226
-470 -394 -344 -346 -575 -712 -729 -1155 -249 -717 -214 -1495 100 -2193 151
-338 350 -623 629 -904 280 -281 551 -473 909 -644 919 -440 2012 -438 2930 3
353 170 623 362 901 641 411 413 673 875 809 1427 196 793 47 1647 -410 2340
-159 242 -438 550 -654 721 -482 382 -1069 632 -1660 707 -47 6 -103 13 -125
16 -53 7 -486 14 -550 9z m511 -374 c168 -13 349 -44 482 -81 108 -31 379
-150 435 -193 18 -13 84 -55 147 -92 63 -38 176 -111 250 -162 74 -51 193
-129 263 -173 144 -90 267 -191 376 -312 125 -139 270 -314 311 -377 73 -109
168 -294 185 -358 9 -35 29 -100 45 -145 40 -115 80 -303 100 -477 20 -174 6
-872 -23 -1112 -14 -114 -20 -134 -61 -216 -25 -50 -64 -119 -86 -154 -23 -35
-59 -99 -80 -143 -21 -44 -79 -134 -129 -200 -160 -214 -178 -239 -241 -333
-79 -119 -190 -237 -347 -373 -158 -136 -203 -163 -430 -255 -101 -41 -225
-95 -276 -121 -85 -43 -279 -110 -337 -117 -14 -2 -61 -10 -105 -19 -126 -26
-472 -75 -556 -80 l-77 -4 -5 756 c-3 416 -10 826 -17 911 -6 85 -10 196 -8
245 l3 90 68 -80 c109 -127 226 -318 274 -444 13 -36 38 -131 54 -211 46 -226
88 -320 143 -320 39 0 56 23 71 94 20 94 74 176 205 307 145 146 310 261 520
360 157 74 330 117 513 126 142 7 157 13 157 66 0 67 -28 77 -187 66 -140 -10
-280 -38 -402 -81 -330 -115 -697 -381 -845 -610 -10 -16 -22 -28 -26 -28 -4
0 -15 42 -25 92 -10 51 -31 129 -47 173 -51 140 -199 385 -306 508 -89 101
-98 91 73 83 174 -9 289 3 407 40 169 54 309 133 430 243 71 65 161 188 182
249 29 82 45 231 51 467 7 252 -3 410 -31 518 -53 209 -251 488 -439 622 -196
139 -537 286 -730 315 -38 5 -86 15 -106 21 -53 17 -184 -2 -255 -37 -148 -72
-540 -387 -677 -544 -106 -121 -241 -358 -287 -505 -32 -104 -50 -260 -50
-443 0 -149 2 -170 26 -240 44 -134 107 -224 232 -335 101 -89 176 -141 276
-188 103 -48 288 -104 430 -130 61 -12 121 -23 134 -25 19 -4 10 -14 -65 -77
-98 -82 -120 -107 -187 -222 -81 -140 -111 -233 -148 -468 l-10 -67 -57 82
c-100 147 -332 356 -519 467 -91 55 -220 106 -340 137 -76 20 -143 28 -307 36
-250 14 -268 10 -273 -58 -2 -25 2 -45 10 -51 7 -5 112 -15 233 -21 363 -19
528 -79 794 -291 207 -165 348 -347 411 -531 30 -88 41 -106 62 -114 33 -12
74 -1 83 21 3 10 15 99 25 198 28 267 53 390 100 491 51 111 118 211 169 252
40 32 41 32 45 10 3 -13 7 -97 11 -188 3 -91 10 -282 15 -425 11 -313 12 -769
3 -1078 l-6 -227 -119 0 c-230 0 -467 36 -663 100 -49 16 -130 38 -180 49
-110 24 -160 45 -284 120 -53 32 -117 67 -143 79 -73 32 -247 159 -303 222
-11 12 -42 38 -70 58 -63 46 -319 257 -366 303 -34 33 -163 191 -223 274 -17
22 -51 65 -78 96 -59 69 -117 165 -148 244 -13 33 -47 107 -75 165 -28 58 -58
121 -65 140 -8 19 -24 51 -36 70 -23 37 -74 176 -101 270 -12 44 -15 122 -15
405 0 461 15 760 42 823 11 26 31 88 46 137 14 50 41 140 59 202 26 90 45 131
95 210 35 54 79 118 99 143 20 25 69 90 109 145 109 150 206 273 247 315 20
21 47 54 58 73 12 19 69 87 127 149 58 63 119 131 135 152 l30 37 44 -15 c24
-9 75 -16 115 -16 84 0 135 20 198 78 81 75 362 235 470 267 13 4 82 32 153
63 72 31 191 75 265 98 l135 43 306 1 c168 0 364 -5 435 -10z m-181 -1065
c123 -7 231 -35 377 -96 359 -149 530 -288 692 -564 107 -184 131 -377 100
-829 -12 -183 -43 -291 -104 -368 -80 -101 -226 -211 -345 -261 -171 -71 -303
-90 -550 -76 -309 17 -464 41 -665 105 -218 69 -310 124 -465 279 -137 137
-175 229 -175 428 1 232 30 377 111 546 103 217 238 377 484 572 253 201 377
281 424 274 14 -2 67 -7 116 -10z"/>
<path d="M3091 4662 c-6 -11 -15 -37 -20 -58 -12 -48 -131 -356 -156 -404 -10
-19 -27 -47 -37 -61 -27 -37 -11 -79 31 -79 51 0 81 51 173 289 71 184 98 278
88 306 -10 28 -65 33 -79 7z"/>
<path d="M3680 4518 c-32 -33 -53 -79 -95 -203 -21 -60 -53 -143 -72 -184 -35
-78 -35 -104 -2 -122 37 -19 62 11 112 133 25 62 58 149 73 193 14 44 38 95
52 114 20 27 23 38 16 60 -13 36 -55 40 -84 9z"/>
<path d="M2808 3689 c-61 -35 40 -159 186 -229 89 -42 183 -61 297 -61 163 1
218 20 311 109 61 58 71 87 42 116 -24 24 -42 19 -84 -23 -77 -78 -101 -91
-193 -103 -182 -24 -366 34 -464 147 -47 55 -63 63 -95 44z"/>
</g>
</svg>
